#define cascade_width 16
#define cascade_height 16
static unsigned char cascade_bits[] = {
   0x00, 0x00, 0x00, 0x00, 0x00, 0x00, 0x10, 0x00, 0x70, 0x00, 0xf0, 0x01,
   0xf0, 0x03, 0xf0, 0x07, 0xf0, 0x03, 0xf0, 0x01, 0x70, 0x00, 0x10, 0x00,
   0x00, 0x00, 0x00, 0x00, 0x00, 0x00, 0x00, 0x00};
