#define icon_width 40
#define icon_height 40
static char icon_bits[] = {
   0x00, 0x00, 0x00, 0x00, 0x00, 0x00, 0x00, 0x00, 0x00, 0x00, 0x00, 0x00,
   0x00, 0x10, 0x00, 0x00, 0x00, 0x00, 0x28, 0x00, 0x00, 0x00, 0x00, 0x44,
   0x00, 0x00, 0x00, 0x00, 0x44, 0x00, 0x00, 0x00, 0x00, 0x28, 0x00, 0x00,
   0x00, 0x00, 0x18, 0x00, 0x00, 0x00, 0x00, 0x08, 0x00, 0x00, 0x00, 0x00,
   0x08, 0x00, 0xf8, 0xe1, 0x83, 0x04, 0x00, 0xe0, 0x40, 0xc0, 0x04, 0x00,
   0xc0, 0x21, 0x20, 0x05, 0x00, 0x80, 0x13, 0x30, 0x7b, 0x00, 0x00, 0x0f,
   0x56, 0x4f, 0x00, 0x00, 0x0e, 0x4c, 0x42, 0x00, 0x00, 0x1e, 0x48, 0x40,
   0x00, 0x00, 0x39, 0x57, 0x6e, 0x00, 0x80, 0x70, 0x04, 0x21, 0x00, 0x40,
   0xe0, 0x08, 0xf0, 0x00, 0x60, 0xc0, 0x1d, 0x28, 0x00, 0xf8, 0xe0, 0x73,
   0x18, 0x00, 0x00, 0x00, 0x81, 0x27, 0x06, 0x00, 0x00, 0x01, 0x0c, 0x05,
   0x00, 0x00, 0x01, 0x08, 0x05, 0x00, 0x00, 0x02, 0x88, 0x04, 0x00, 0x00,
   0x06, 0x78, 0x02, 0xc0, 0xc1, 0x1d, 0x8c, 0x01, 0x80, 0xc3, 0xe0, 0x7f,
   0x00, 0x80, 0xe7, 0x00, 0x00, 0x00, 0x80, 0xd5, 0x00, 0x00, 0x10, 0x80,
   0xc9, 0x9c, 0x33, 0x13, 0x80, 0xc1, 0x52, 0x88, 0x34, 0x80, 0xc1, 0xd2,
   0x89, 0x14, 0x80, 0xc1, 0x12, 0x8a, 0x14, 0xc0, 0xc1, 0xfd, 0x31, 0x33,
   0x00, 0x00, 0x00, 0x00, 0x00, 0x00, 0x00, 0x00, 0x00, 0x00, 0x00, 0x00,
   0x00, 0x00, 0x00, 0x00, 0x00, 0x00, 0x00, 0x00};
