#define select_width 16
#define select_height 16
static unsigned char select_bits[] = {
   0xe0, 0x03, 0x18, 0x0c, 0x04, 0x10, 0x02, 0x20, 0x32, 0x26, 0x49, 0x49,
   0x49, 0x49, 0x01, 0x40, 0x0d, 0x58, 0xed, 0x5b, 0x22, 0x22, 0x22, 0x22,
   0xc4, 0x11, 0x18, 0x0c, 0xe0, 0x03, 0x00, 0x00};
